# xmcd
#
# Track frame offsets: 
#        150
#        24611
#        43482
#        61278
#        81365
#        103649
#        124353
#        149272
#        172483
#        198771
#        221219
#        240921
#        255821
#
# Disc length: 3649 seconds
#
# Revision: 4
# Processed by: cddbd v1.5.2PL0 Copyright (c) Steve Scherf et al.
# Submitted via: ExactAudioCopy v0.99pb5
#
DISCID=c00e3f0d
DTITLE=FM - Dead Man's Shoes
DYEAR=1996
DGENRE=Rock
TTITLE0=Nobody's Fool
TTITLE1=Ain't No Cure For Love
TTITLE2=Get Ready
TTITLE3=Don't Say
TTITLE4=Mona
TTITLE5=Sister
TTITLE6=You're The One
TTITLE7=Tattoo Needle
TTITLE8=Misery
TTITLE9=Dead Man's Shoes
TTITLE10=Stranger Kind Of Love (Bonus Track)
TTITLE11=Show No Mercy (Bonus Track)
TTITLE12=Crying In The Dark (Bonus Track)
EXTD=
EXTT0=
EXTT1=
EXTT2=
EXTT3=
EXTT4=
EXTT5=
EXTT6=
EXTT7=
EXTT8=
EXTT9=
EXTT10=
EXTT11=
EXTT12=
PLAYORDER=
